# xmcd
#
# Track frame offsets: 
#        150
#        14991
#        29496
#        67864
#        87563
#        116492
#        129727
#        146814
#        164814
#        172455
#        186927
#        204274
#        223650
#        239259
#
# Disc length: 3436 seconds
#
# Revision: 0
# Processed by: cddbd v1.5.2PL0 Copyright (c) Steve Scherf et al.
# Submitted via: ExactAudioCopy v0.95a4
#
DISCID=e10d6a0e
DTITLE=Mira Kubasiñska and KG Band - Miracle
DYEAR=2006
DGENRE=Blues
TTITLE0=Czy warto by³o
TTITLE1=Mira-cle
TTITLE2=Do kogo idziesz?
TTITLE3=Na drugim brzegu têczy
TTITLE4=Czarno-czarny film
TTITLE5=Gdybys kocha³ hej
TTITLE6=Masz na to czas
TTITLE7=Wyspa
TTITLE8=Tango
TTITLE9=Posz³abym za tob¹
TTITLE10=Mijam miasto
TTITLE11=Skamienia³y las
TTITLE12=Blues dla Miry
TTITLE13=Mijam miasto - Sonic Trip remix
EXTD=
EXTT0=
EXTT1=
EXTT2=
EXTT3=
EXTT4=
EXTT5=
EXTT6=
EXTT7=
EXTT8=
EXTT9=
EXTT10=
EXTT11=
EXTT12=
EXTT13=
PLAYORDER=
